<svg xmlns="http://www.w3.org/2000/svg" width="46" height="46" viewBox="0 0 46 46"><defs><style>.a{fill:#f2f3f5;opacity:0.196;}.b,.c{fill:#fff;}.b{opacity:0;}</style></defs><g transform="translate(-1014 -3685.827)"><path class="a" d="M-27-50c-16.1,0-23,6.9-23,23h0c0,16.1,6.9,23,23,23h0C-10.9-4-4-10.9-4-27h0C-4-43.1-10.9-50-27-50Z" transform="translate(1064 3735.827)"/><g transform="translate(1025 3696.827)"><rect class="b" width="24" height="24"/><path class="c" d="M19,4H5A3,3,0,0,0,2,7V17a3,3,0,0,0,3,3H19a3,3,0,0,0,3-3V7a3,3,0,0,0-3-3Zm-.67,2L12,10.75,5.67,6ZM19,18H5a1,1,0,0,1-1-1V7.25l7.4,5.55a1,1,0,0,0,1.2,0L20,7.25V17A1,1,0,0,1,19,18Z"/></g></g></svg>