<svg xmlns="http://www.w3.org/2000/svg" width="46" height="46" viewBox="0 0 46 46"><defs><style>.a{fill:#f2f3f5;opacity:0.196;}.b{fill:#fff;}</style></defs><g transform="translate(-1014 -3685.827)"><path class="a" d="M-27-50c-16.1,0-23,6.9-23,23h0c0,16.1,6.9,23,23,23h0C-10.9-4-4-10.9-4-27h0C-4-43.1-10.9-50-27-50Z" transform="translate(1064 3735.827)"/><path class="b" d="M21.209,6.417H22V4.083H14.52L12.034,13.25h-.068L9.5,4.083H2V6.417h.768a.9.9,0,0,1,.732.695v9.83a.841.841,0,0,1-.732.642H2v2.333H8V17.583H6.5V7.25h.088l3.458,12.667h2.712L16.26,7.25h.074V17.583h-1.5v2.333H22V17.583h-.791a.839.839,0,0,1-.709-.642V7.111a.9.9,0,0,1,.709-.695Z" transform="translate(1025 3696.744)"/></g></svg>