<svg xmlns="http://www.w3.org/2000/svg" width="46" height="46" viewBox="0 0 46 46"><defs><style>.a{fill:#f2f3f5;opacity:0.196;}.b{fill:none;stroke:#fff;stroke-linecap:round;stroke-linejoin:round;stroke-width:2px;}</style></defs><g transform="translate(-961 -3686)"><path class="a" d="M-27-50c-16.1,0-23,6.9-23,23h0c0,16.1,6.9,23,23,23h0C-10.9-4-4-10.9-4-27h0C-4-43.1-10.9-50-27-50Z" transform="translate(1011 3736)"/><g transform="translate(972 3697)"><circle class="b" cx="10" cy="10" r="10" transform="translate(2 2)"/><line class="b" x2="20" transform="translate(2 12)"/><path class="b" d="M12,2a15.3,15.3,0,0,1,4,10,15.3,15.3,0,0,1-4,10A15.3,15.3,0,0,1,8,12,15.3,15.3,0,0,1,12,2Z"/></g></g></svg>